if (_typeface_js && _typeface_js.loadFace) _typeface_js.loadFace({"glyphs":{"0":{"ha":778,"x_min":0,"x_max":0,"o":"m 603 469 b 384 856 603 637 554 856 b 167 493 220 856 167 652 b 388 86 167 306 209 86 b 603 469 543 86 603 297 m 708 474 b 389 -12 708 226 613 -12 b 69 474 165 -12 69 227 b 389 960 69 721 165 960 b 708 474 613 960 708 721 "},"1":{"ha":399,"x_min":0,"x_max":0,"o":"m 206 846 l 69 846 l 69 931 l 303 956 l 303 0 l 206 0 "},"2":{"ha":854,"x_min":0,"x_max":0,"o":"m 639 646 b 419 860 639 764 538 860 b 262 790 358 860 305 837 b 202 649 222 748 202 701 b 203 631 202 643 202 637 l 104 631 b 104 646 104 636 104 641 b 192 863 104 730 133 803 b 424 960 256 927 333 960 b 649 867 510 960 586 929 b 743 644 712 807 743 733 b 651 424 743 558 713 485 l 322 97 l 753 97 l 753 0 l 88 0 l 576 493 b 639 646 618 535 639 586 "},"3":{"ha":722,"x_min":0,"x_max":0,"o":"m 593 301 b 372 521 593 421 493 521 b 214 454 311 521 258 499 l 140 514 l 426 847 l 115 847 l 115 944 l 624 944 l 328 594 l 369 619 b 595 524 460 614 536 582 b 690 300 659 463 690 388 b 597 77 690 212 659 138 b 380 -14 547 29 469 -14 b 188 44 299 -14 238 10 b 71 194 132 82 93 133 l 165 226 b 360 85 191 154 269 85 b 527 149 437 85 488 110 b 593 301 571 192 593 242 "},"4":{"ha":840,"x_min":0,"x_max":0,"o":"m 193 293 l 554 293 l 554 839 m 656 0 l 554 0 l 554 193 l 21 193 l 518 944 l 654 944 l 656 293 l 775 293 l 775 193 l 656 193 "},"5":{"ha":764,"x_min":0,"x_max":0,"o":"m 590 299 b 380 518 590 411 493 518 b 236 474 324 518 276 503 l 131 521 l 239 944 l 654 944 l 654 847 l 313 847 l 249 594 b 381 617 296 609 340 617 b 599 526 472 617 549 575 b 690 306 660 467 690 394 b 597 78 690 217 659 142 b 369 -17 535 15 459 -17 b 68 192 224 -17 109 80 l 163 222 b 358 82 189 152 268 82 b 525 146 436 82 485 107 b 590 299 569 187 590 238 "},"6":{"ha":711,"x_min":0,"x_max":0,"o":"m 575 296 b 358 515 575 415 476 515 b 201 451 291 515 237 486 b 136 300 158 410 136 359 b 357 82 136 181 239 82 b 575 296 477 82 575 179 m 344 615 b 674 303 529 608 674 487 b 581 76 674 203 633 129 b 356 -15 519 15 444 -15 b 131 77 268 -15 193 16 b 38 300 69 138 38 212 b 108 499 38 376 61 442 l 478 944 l 606 944 l 317 597 l 344 615 "},"7":{"ha":685,"x_min":0,"x_max":0,"o":"m 111 0 l 483 843 l 42 843 l 42 940 l 635 940 l 219 0 "},"8":{"ha":731,"x_min":0,"x_max":0,"o":"m 565 285 b 365 481 565 395 475 481 b 165 285 255 481 165 395 b 365 83 165 174 253 83 b 565 285 477 83 565 174 m 529 707 b 365 864 529 796 455 864 b 201 707 276 864 201 796 b 365 546 201 620 276 546 b 529 707 454 546 529 620 m 517 513 b 675 272 598 468 675 383 b 584 63 675 176 637 109 b 365 -14 525 12 452 -14 b 147 63 279 -14 206 12 b 56 269 86 116 56 185 b 214 512 56 383 132 468 b 101 715 139 575 101 642 b 365 960 101 860 217 960 b 629 715 514 960 629 860 b 517 513 629 642 592 575 "},"9":{"ha":711,"x_min":0,"x_max":0,"o":"m 136 649 b 353 429 136 530 235 429 b 575 644 479 429 575 530 b 354 863 575 763 472 863 b 136 649 235 863 136 766 m 367 329 b 38 642 182 337 38 457 b 131 868 38 742 78 816 b 356 960 192 929 267 960 b 581 867 443 960 518 929 b 674 644 643 806 674 732 b 603 446 674 569 650 502 l 233 0 l 106 0 l 394 347 l 367 329 "},"\u0000":{"ha":0,"x_min":0,"x_max":0,"o":""},"\r":{"ha":0,"x_min":0,"x_max":0,"o":""}," ":{"ha":375,"x_min":0,"x_max":0,"o":""},"!":{"ha":417,"x_min":0,"x_max":0,"o":"m 266 9 b 209 -14 250 -6 231 -14 b 152 9 187 -14 168 -6 b 128 64 136 24 128 43 b 152 119 128 85 136 104 b 209 143 168 135 187 143 b 266 120 231 143 250 135 b 290 65 282 105 290 86 b 266 9 290 43 282 24 m 254 282 l 163 282 l 136 1042 l 281 1042 "},"\"":{"ha":510,"x_min":0,"x_max":0,"o":"m 156 692 l 85 692 l 61 1042 l 181 1042 m 425 692 l 354 692 l 329 1042 l 449 1042 "},"#":{"ha":790,"x_min":0,"x_max":0,"o":"m 274 365 l 496 365 l 525 607 l 306 607 m 569 365 l 710 365 l 710 292 l 560 292 l 524 -3 l 451 7 l 486 292 l 264 292 l 226 -3 l 153 7 l 189 294 l 46 294 l 46 365 l 200 365 l 232 607 l 85 607 l 85 678 l 240 678 l 274 954 l 346 944 l 313 678 l 533 678 l 568 954 l 640 944 l 607 678 l 749 678 l 749 607 l 600 607 "},"$":{"ha":819,"x_min":0,"x_max":0,"o":"m 394 -18 b 95 121 256 -12 157 35 b 51 232 73 151 59 188 l 178 232 b 394 83 194 138 266 88 l 394 436 b 280 469 356 446 317 457 b 179 517 242 481 209 497 b 79 700 113 560 79 622 b 178 894 79 783 112 848 b 394 958 236 935 308 956 l 394 1042 l 471 1042 l 471 954 b 704 831 577 942 655 900 b 742 742 722 806 734 776 l 626 742 b 522 848 617 795 582 830 b 471 860 504 853 488 857 l 471 526 b 585 495 510 517 548 507 b 686 449 623 484 656 468 b 785 261 752 405 785 343 b 688 57 785 174 753 106 b 471 -17 635 16 562 -8 l 471 -97 l 394 -97 m 394 864 b 256 830 340 864 294 853 b 190 719 212 804 190 767 b 251 603 190 669 210 630 b 394 544 283 581 331 561 m 471 85 b 608 134 524 91 570 107 b 674 249 652 164 674 202 b 549 392 674 313 632 360 b 471 417 525 401 499 409 "},"%":{"ha":1015,"x_min":0,"x_max":0,"o":"m 774 308 b 698 267 739 308 714 294 b 679 182 685 245 679 217 b 727 69 679 127 695 89 b 773 57 740 61 755 57 b 819 69 791 57 806 61 b 848 99 831 77 841 87 b 868 168 861 122 868 145 b 864 225 868 191 867 210 b 849 266 861 240 856 253 b 774 308 834 294 808 308 m 289 874 b 242 886 277 882 261 886 b 195 874 223 886 208 882 b 166 844 183 866 173 856 b 147 775 153 823 147 800 b 151 717 147 751 149 731 b 166 676 154 702 159 688 b 242 635 182 649 207 635 b 317 676 275 635 300 649 b 336 745 330 697 336 720 b 332 804 336 770 335 789 b 317 844 329 819 324 832 b 289 874 310 856 301 866 m 774 -14 b 632 55 713 -14 666 9 b 590 182 604 92 590 135 b 629 306 590 226 603 268 b 774 379 663 355 711 379 b 917 306 836 379 883 355 b 956 182 943 268 956 226 b 915 55 956 135 942 93 b 774 -14 882 9 835 -14 m 276 0 l 656 944 l 756 944 l 374 0 m 242 564 b 101 633 181 564 134 587 b 60 760 73 671 60 713 b 99 883 60 804 73 845 b 242 957 132 932 180 957 b 386 883 305 957 353 932 b 425 760 412 845 425 804 b 383 633 425 712 411 670 b 242 564 349 587 302 564 "},"&":{"ha":957,"x_min":0,"x_max":0,"o":"m 365 479 b 254 391 312 441 275 411 b 186 264 209 345 186 303 b 237 139 186 217 203 176 b 358 83 271 102 311 83 b 527 170 409 83 466 112 b 572 214 543 185 558 200 l 365 479 m 357 634 b 389 599 368 622 379 611 b 433 630 403 609 417 619 b 475 665 448 641 462 652 b 519 761 505 695 519 727 b 485 842 519 795 508 822 b 408 873 462 861 436 872 b 402 873 406 873 404 873 b 331 847 376 873 352 864 b 296 759 307 829 296 799 b 357 634 296 718 316 676 m 826 368 b 701 212 813 349 771 297 l 864 0 l 736 -3 l 633 132 b 522 36 587 86 550 54 b 372 -17 465 1 415 -17 b 256 3 329 -17 290 -10 b 169 60 222 17 193 36 b 90 257 116 113 90 178 b 225 492 90 348 135 427 b 306 551 251 511 278 531 b 206 755 239 628 206 696 b 261 901 206 814 224 862 b 408 958 298 939 347 958 b 552 904 467 958 515 940 b 610 763 591 867 610 820 b 501 581 610 702 574 641 b 446 536 482 565 463 550 l 640 288 b 694 354 659 310 677 332 l 747 421 l 826 368 "},"'":{"ha":240,"x_min":0,"x_max":0,"o":"m 156 692 l 85 692 l 61 1042 l 181 1042 "},"(":{"ha":428,"x_min":0,"x_max":0,"o":"m 339 1042 b 191 602 271 924 221 778 b 172 364 178 529 172 450 b 190 125 172 278 178 198 b 235 -70 202 52 217 -13 b 337 -311 263 -162 297 -242 l 246 -311 b 162 -129 215 -267 187 -206 b 83 365 110 35 83 200 b 152 833 83 532 106 688 b 244 1042 178 914 209 983 l 339 1042 "},")":{"ha":428,"x_min":0,"x_max":0,"o":"m 324 630 b 344 367 338 552 344 464 b 324 104 344 269 337 182 b 275 -99 310 26 294 -41 b 182 -311 244 -196 213 -267 l 90 -311 b 237 125 158 -195 207 -49 b 256 364 249 198 256 278 b 237 602 256 450 249 529 b 192 798 224 675 209 740 b 89 1042 163 892 129 973 l 183 1042 b 324 630 246 939 293 802 "},"*":{"ha":736,"x_min":0,"x_max":0,"o":"m 408 769 l 567 615 l 469 544 l 368 740 l 267 544 l 169 615 l 328 769 l 107 808 l 143 922 l 343 817 l 308 1042 l 428 1042 l 393 817 l 593 922 l 631 808 "},"+":{"ha":639,"x_min":0,"x_max":0,"o":"m 360 269 l 360 42 l 279 42 l 279 269 l 53 269 l 53 349 l 279 349 l 279 576 l 360 576 l 360 349 l 588 349 l 588 269 "},",":{"ha":322,"x_min":0,"x_max":0,"o":"m 128 -196 l 69 -196 l 150 164 l 283 164 "},"-":{"ha":569,"x_min":0,"x_max":0,"o":"m 53 269 l 53 349 l 518 349 l 518 269 "},".":{"ha":371,"x_min":0,"x_max":0,"o":"m 185 -14 b 128 9 163 -14 145 -6 b 104 64 112 24 104 43 b 128 119 104 85 112 104 b 185 143 144 135 163 143 b 242 120 207 143 226 135 b 267 65 259 105 267 86 b 242 9 267 43 258 24 b 185 -14 225 -6 206 -14 "},"/":{"ha":747,"x_min":0,"x_max":0,"o":"m 164 -279 l 60 -279 l 599 1042 l 703 1042 "},":":{"ha":371,"x_min":0,"x_max":0,"o":"m 185 -14 b 128 9 163 -14 145 -6 b 104 64 112 24 104 43 b 128 119 104 85 112 104 b 185 143 144 135 163 143 b 242 120 207 143 226 135 b 267 65 259 105 267 86 b 242 9 267 43 258 24 b 185 -14 225 -6 206 -14 m 185 524 b 128 547 163 524 145 531 b 104 601 112 562 104 580 b 128 657 104 623 112 641 b 185 681 144 673 163 681 b 242 658 207 681 226 673 b 267 602 259 642 267 624 b 242 547 267 580 258 562 b 185 524 225 531 206 524 "},";":{"ha":371,"x_min":0,"x_max":0,"o":"m 185 524 b 128 547 163 524 145 531 b 104 601 112 562 104 580 b 128 657 104 623 112 641 b 185 681 144 673 163 681 b 242 658 207 681 226 673 b 267 602 259 642 267 624 b 242 547 267 580 258 562 b 185 524 225 531 206 524 m 115 -196 l 57 -196 l 138 164 l 271 164 "},"<":{"ha":717,"x_min":0,"x_max":0,"o":"m 63 240 l 63 339 l 654 632 l 654 532 l 143 289 l 654 47 l 654 -53 "},"=":{"ha":639,"x_min":0,"x_max":0,"o":"m 67 140 l 67 219 l 532 219 l 532 140 m 67 392 l 67 471 l 532 471 l 532 392 "},">":{"ha":717,"x_min":0,"x_max":0,"o":"m 574 289 l 63 532 l 63 632 l 654 339 l 654 240 l 63 -53 l 63 47 "},"?":{"ha":703,"x_min":0,"x_max":0,"o":"m 356 136 b 431 65 396 136 431 104 b 356 -7 431 26 396 -7 b 282 64 317 -7 282 26 b 356 136 282 102 317 136 m 90 844 b 354 1056 106 979 200 1056 b 615 833 504 1056 615 974 b 407 503 615 691 407 637 l 407 296 l 303 296 l 303 532 b 511 833 303 679 511 706 b 355 975 511 926 444 975 b 191 844 265 975 203 926 l 90 844 "},"@":{"ha":765,"x_min":0,"x_max":0,"o":"m 402 251 b 462 225 416 234 435 225 b 522 251 488 225 508 234 b 542 308 535 268 542 287 b 522 365 542 328 535 347 b 462 390 508 382 488 390 b 402 365 435 390 416 382 b 382 308 389 347 382 328 b 402 251 382 287 389 268 m 557 157 l 557 211 b 517 161 551 190 538 173 b 449 143 495 149 473 143 b 385 157 426 143 404 148 b 336 194 366 166 350 179 b 293 315 307 227 293 267 b 335 422 293 357 307 392 b 440 469 364 454 399 469 b 447 470 442 470 445 470 b 557 411 495 470 531 450 b 525 524 557 467 546 504 b 435 554 504 544 474 554 b 333 537 396 554 362 548 b 258 488 303 525 279 509 b 194 315 216 443 194 386 b 270 144 194 249 220 192 b 443 76 318 99 376 76 l 624 76 l 624 0 l 443 0 b 204 85 346 0 266 28 b 108 315 140 144 108 221 b 194 551 108 411 137 490 b 429 646 253 614 332 646 b 572 599 487 646 535 630 b 629 479 610 567 629 527 l 629 157 "},"A":{"ha":857,"x_min":0,"x_max":0,"o":"m 601 347 l 429 768 l 257 347 m 738 0 l 636 257 l 221 257 l 119 0 l 14 0 l 429 974 l 843 0 "},"B":{"ha":749,"x_min":0,"x_max":0,"o":"m 540 521 b 721 263 649 492 721 400 b 624 66 721 177 675 106 b 393 0 566 22 489 0 l 104 0 l 104 944 l 360 944 b 629 817 498 944 588 902 b 651 724 644 786 651 755 b 540 521 651 621 608 551 m 387 557 b 554 708 488 557 554 607 b 360 851 554 804 489 851 l 201 851 l 201 557 l 387 557 m 421 93 b 624 282 537 93 624 168 b 566 410 624 341 598 382 b 436 460 529 443 486 460 l 201 460 l 201 93 l 421 93 "},"C":{"ha":1013,"x_min":0,"x_max":0,"o":"m 533 86 b 864 289 689 86 807 181 l 971 289 b 533 -14 908 128 745 -14 b 199 131 402 -14 291 34 b 63 471 108 225 63 339 b 199 813 63 617 123 734 b 533 957 291 909 402 957 b 969 657 746 957 906 817 l 863 657 b 634 842 811 751 735 812 b 519 857 601 852 563 857 b 267 742 416 857 323 799 b 160 471 196 667 160 577 b 267 201 160 366 196 276 b 533 86 341 125 430 86 "},"D":{"ha":900,"x_min":0,"x_max":0,"o":"m 838 472 b 696 133 838 324 775 209 b 351 0 617 58 499 0 l 104 0 l 104 944 l 351 944 b 696 811 498 944 617 887 b 838 472 775 735 838 620 m 743 472 b 629 742 743 580 705 670 b 354 847 555 812 463 847 l 201 847 l 201 97 l 354 97 b 629 203 463 97 555 132 b 743 472 705 275 743 365 "},"E":{"ha":769,"x_min":0,"x_max":0,"o":"m 104 0 l 104 944 l 665 944 l 665 854 l 201 854 l 201 518 l 651 518 l 651 426 l 201 426 l 201 90 l 665 90 l 665 0 "},"F":{"ha":693,"x_min":0,"x_max":0,"o":"m 201 854 l 201 518 l 651 518 l 651 426 l 201 426 l 201 0 l 104 0 l 104 944 l 665 944 l 665 854 "},"G":{"ha":1099,"x_min":0,"x_max":0,"o":"m 912 614 b 549 865 860 750 727 865 b 274 751 441 865 350 827 b 160 476 198 675 160 584 b 273 201 160 370 198 278 b 549 86 349 124 441 86 b 928 357 736 86 878 210 l 544 357 l 544 442 l 1036 442 l 1026 383 b 858 100 1006 268 950 174 b 549 -11 766 26 663 -11 b 205 131 401 -11 283 53 b 62 476 126 210 62 327 b 205 820 62 624 127 742 b 539 963 280 895 400 963 b 1015 614 780 963 957 806 l 912 614 "},"H":{"ha":832,"x_min":0,"x_max":0,"o":"m 104 0 l 104 944 l 201 944 l 201 519 l 631 519 l 631 944 l 728 944 l 728 0 l 631 0 l 631 422 l 201 422 l 201 0 "},"I":{"ha":306,"x_min":0,"x_max":0,"o":"m 104 0 l 104 944 l 201 944 l 201 0 "},"J":{"ha":507,"x_min":0,"x_max":0,"o":"m 7 126 b 157 83 38 101 94 83 b 326 233 256 83 326 135 l 326 944 l 424 944 l 424 233 b 154 -14 424 75 316 -14 b 7 19 100 -14 34 -3 l 7 126 "},"K":{"ha":658,"x_min":0,"x_max":0,"o":"m 104 0 l 104 944 l 201 944 l 201 501 l 519 944 l 644 944 l 297 472 l 644 0 l 519 0 l 201 443 l 201 0 "},"L":{"ha":567,"x_min":0,"x_max":0,"o":"m 539 97 l 539 0 l 104 0 l 104 944 l 201 944 l 201 97 "},"M":{"ha":1088,"x_min":0,"x_max":0,"o":"m 828 661 l 544 -36 l 260 661 l 114 0 l 14 0 l 235 974 l 544 206 l 854 974 l 1074 0 l 975 0 "},"N":{"ha":836,"x_min":0,"x_max":0,"o":"m 201 0 l 104 0 l 104 975 l 635 257 l 635 944 l 732 944 l 732 -35 l 201 689 "},"O":{"ha":1096,"x_min":0,"x_max":0,"o":"m 547 86 b 936 475 760 86 936 262 b 547 863 936 687 760 863 b 160 475 336 863 160 686 b 547 86 160 263 335 86 m 1033 475 b 736 27 1033 250 897 96 b 547 -11 677 2 614 -11 b 101 286 322 -11 170 125 b 62 475 75 345 62 408 b 359 922 62 700 198 852 b 547 960 418 947 481 960 b 995 664 772 960 926 824 b 1033 475 1021 605 1033 542 "},"P":{"ha":735,"x_min":0,"x_max":0,"o":"m 610 663 b 421 852 610 775 534 852 l 201 852 l 201 468 l 421 468 b 610 663 530 468 610 553 m 707 660 b 407 374 707 496 574 374 l 201 374 l 201 0 l 104 0 l 104 945 l 407 945 b 619 866 490 945 561 918 b 707 660 678 812 707 743 "},"Q":{"ha":1089,"x_min":0,"x_max":0,"o":"m 1033 471 b 796 55 1033 273 924 131 b 906 79 835 63 872 72 l 1047 79 l 1047 0 l 664 0 b 547 -14 626 -9 587 -14 b 205 128 400 -14 283 50 b 62 471 127 207 62 323 b 205 815 62 618 127 736 b 547 957 283 893 400 957 b 891 815 695 957 813 893 b 1033 471 969 736 1033 618 m 547 83 b 936 471 760 83 936 259 b 547 860 936 684 760 860 b 160 471 335 860 160 683 b 547 83 160 260 336 83 "},"R":{"ha":756,"x_min":0,"x_max":0,"o":"m 610 662 b 421 851 610 773 533 851 l 201 851 l 201 467 l 421 467 b 610 662 530 467 610 554 m 407 944 b 707 660 573 944 707 823 b 431 374 707 503 584 384 l 722 0 l 592 0 l 315 374 l 201 374 l 201 0 l 104 0 l 104 944 l 407 944 "},"S":{"ha":797,"x_min":0,"x_max":0,"o":"m 415 71 b 661 253 553 71 661 118 b 367 451 661 380 517 415 b 78 693 174 496 78 588 b 389 958 78 867 219 958 b 717 753 574 958 682 890 l 611 753 b 389 875 593 835 518 875 b 178 718 275 875 178 829 b 461 522 179 596 314 560 b 761 260 625 479 761 431 b 415 -18 761 76 607 -18 b 51 221 206 -18 85 61 l 167 221 b 415 71 185 121 267 71 "},"T":{"ha":611,"x_min":0,"x_max":0,"o":"m 28 947 l 583 947 l 583 857 l 354 857 l 354 3 l 257 3 l 257 857 l 28 857 "},"U":{"ha":871,"x_min":0,"x_max":0,"o":"m 181 299 b 436 85 181 158 288 85 b 669 201 551 85 629 124 b 690 299 683 228 690 261 l 690 944 l 788 944 l 788 313 b 436 -12 788 109 644 -12 b 83 313 227 -12 83 108 l 83 944 l 181 944 l 181 299 "},"V":{"ha":885,"x_min":0,"x_max":0,"o":"m 14 944 l 119 944 l 443 183 l 765 944 l 871 944 l 443 -57 "},"W":{"ha":1088,"x_min":0,"x_max":0,"o":"m 544 734 l 235 -36 l 14 944 l 114 944 l 260 272 l 544 974 l 828 272 l 975 944 l 1074 944 l 854 -36 "},"X":{"ha":842,"x_min":0,"x_max":0,"o":"m 421 403 l 149 0 l 29 0 l 361 471 l 28 944 l 149 944 l 421 542 l 693 944 l 813 944 l 481 472 l 813 0 l 693 0 "},"Y":{"ha":840,"x_min":0,"x_max":0,"o":"m 469 0 l 372 0 l 372 444 l 14 944 l 139 944 l 421 540 l 703 944 l 826 944 l 469 444 "},"Z":{"ha":806,"x_min":0,"x_max":0,"o":"m 747 90 l 747 0 l 35 0 l 594 854 l 64 854 l 64 944 l 771 944 l 211 90 "},"[":{"ha":489,"x_min":0,"x_max":0,"o":"m 136 -296 l 136 1042 l 388 1042 l 388 974 l 228 974 l 228 -226 l 388 -226 l 388 -296 "},"\\":{"ha":747,"x_min":0,"x_max":0,"o":"m 600 -279 l 60 1042 l 164 1042 l 703 -279 "},"]":{"ha":489,"x_min":0,"x_max":0,"o":"m 101 -296 l 101 -226 l 261 -226 l 261 974 l 101 974 l 101 1042 l 353 1042 l 353 -296 "},"^":{"ha":813,"x_min":0,"x_max":0,"o":"m 625 476 l 407 881 l 189 476 l 82 476 l 335 943 l 478 943 l 732 476 "},"_":{"ha":813,"x_min":0,"x_max":0,"o":"m 32 -203 l 32 -122 l 782 -122 l 782 -203 "},"`":{"ha":258,"x_min":0,"x_max":0,"o":"m 153 1042 l 0 1240 l 106 1240 l 231 1042 "},"a":{"ha":792,"x_min":0,"x_max":0,"o":"m 590 306 b 528 461 590 365 570 417 b 375 528 487 506 436 528 b 222 461 314 528 263 506 b 160 306 180 417 160 365 b 222 150 160 246 180 194 b 375 83 263 106 314 83 b 528 150 436 83 487 106 b 590 306 570 194 590 246 m 590 0 l 590 104 b 573 83 585 97 579 90 b 360 -14 515 19 444 -14 b 147 83 275 -14 204 19 b 63 306 91 146 63 220 b 147 528 63 391 91 465 b 360 625 204 593 275 625 b 573 528 444 625 515 593 b 590 507 579 521 585 514 l 590 611 l 688 611 l 688 0 "},"b":{"ha":792,"x_min":0,"x_max":0,"o":"m 432 -14 b 201 104 337 -14 257 31 l 201 0 l 104 0 l 104 1042 l 201 1042 l 201 507 b 432 625 257 580 337 625 b 645 528 516 625 587 593 b 729 306 701 465 729 391 b 645 83 729 220 701 146 b 432 -14 587 19 516 -14 m 417 83 b 632 306 536 83 632 186 b 417 528 632 425 536 528 b 201 306 297 528 201 425 b 417 83 201 186 297 83 "},"c":{"ha":724,"x_min":0,"x_max":0,"o":"m 367 76 b 560 200 464 76 533 128 l 669 200 b 471 2 635 102 569 36 b 367 -14 440 -9 406 -14 b 153 81 277 -14 200 32 b 63 306 93 144 63 219 b 153 529 63 392 93 467 b 375 624 214 592 288 624 b 675 392 526 624 640 517 l 569 392 b 376 539 544 476 481 539 b 162 306 244 539 162 426 b 367 76 162 188 249 76 "},"d":{"ha":792,"x_min":0,"x_max":0,"o":"m 375 83 b 590 306 495 83 590 186 b 375 528 590 425 495 528 b 160 306 255 528 160 425 b 375 83 160 186 255 83 m 360 625 b 590 507 454 625 534 580 l 590 1042 l 688 1042 l 688 0 l 590 0 l 590 104 b 360 -14 534 31 454 -14 b 147 83 275 -14 204 19 b 63 306 91 146 63 220 b 147 528 63 391 91 465 b 360 625 204 593 275 625 "},"e":{"ha":757,"x_min":0,"x_max":0,"o":"m 674 179 b 397 -10 631 82 525 -10 b 156 83 285 -10 213 27 b 63 308 94 145 63 220 b 156 534 63 396 94 472 b 382 628 219 597 294 628 b 605 538 467 628 542 598 b 701 319 669 476 701 404 l 701 268 l 164 268 b 382 76 165 160 258 76 b 567 179 462 76 529 103 l 674 179 m 599 351 b 382 542 578 460 507 542 b 165 351 271 542 179 468 l 599 351 "},"f":{"ha":474,"x_min":0,"x_max":0,"o":"m 172 847 b 363 1042 172 976 230 1042 l 432 1042 l 432 951 l 349 951 b 269 875 291 951 269 926 l 269 611 l 432 611 l 432 521 l 269 521 l 269 0 l 172 0 l 172 521 l 49 521 l 49 611 l 172 611 l 172 847 "},"g":{"ha":800,"x_min":0,"x_max":0,"o":"m 383 83 b 599 306 503 83 599 186 b 383 528 599 425 503 528 b 168 306 265 528 168 425 b 383 83 168 187 265 83 m 369 625 b 599 509 457 625 545 582 l 599 611 l 696 611 l 696 -31 b 603 -254 696 -118 665 -192 b 379 -347 541 -316 466 -347 b 156 -254 292 -347 218 -316 b 67 -83 106 -205 77 -148 l 166 -83 b 379 -260 178 -183 277 -260 b 599 -31 499 -260 599 -161 l 599 103 b 369 -14 545 29 461 -14 b 155 83 284 -14 213 19 b 71 306 99 146 71 220 b 155 528 71 391 99 465 b 369 625 213 593 284 625 "},"h":{"ha":707,"x_min":0,"x_max":0,"o":"m 526 382 b 410 526 526 463 492 526 b 245 449 327 526 278 499 b 201 256 216 405 201 341 l 201 0 l 104 0 l 104 1042 l 201 1042 l 201 506 b 394 624 238 568 301 624 b 568 553 480 624 530 599 b 624 382 605 510 624 453 l 624 0 l 526 0 l 526 382 "},"i":{"ha":318,"x_min":0,"x_max":0,"o":"m 159 863 b 221 801 193 863 221 835 b 159 739 221 767 193 739 b 97 801 125 739 97 767 b 159 863 97 835 125 863 m 111 0 l 111 611 l 208 611 l 208 0 "},"j":{"ha":326,"x_min":0,"x_max":0,"o":"m 167 863 b 229 801 201 863 229 835 b 167 739 229 767 201 739 b 106 801 133 739 106 767 b 167 863 106 835 133 863 m 215 -117 b 119 -319 215 -219 181 -287 b 43 -337 96 -331 69 -337 b -35 -317 14 -337 -13 -330 l -35 -224 b 29 -249 -20 -237 3 -249 b 59 -243 39 -249 49 -247 b 118 -118 98 -227 118 -186 l 118 611 l 215 611 l 215 -117 "},"k":{"ha":585,"x_min":0,"x_max":0,"o":"m 104 0 l 104 1042 l 201 1042 l 201 337 l 425 613 l 554 613 l 303 315 l 571 0 l 442 0 l 201 293 l 201 0 "},"l":{"ha":306,"x_min":0,"x_max":0,"o":"m 104 0 l 104 1042 l 201 1042 l 201 0 "},"m":{"ha":1060,"x_min":0,"x_max":0,"o":"m 575 512 b 758 628 610 573 668 628 b 926 554 842 628 890 600 b 976 385 959 510 976 454 l 976 3 l 879 3 l 879 385 b 819 517 879 448 859 492 b 756 531 806 526 784 531 b 599 408 675 531 623 469 b 600 385 600 401 600 393 l 600 3 l 503 3 l 503 385 b 443 517 503 448 483 492 b 379 531 429 526 408 531 b 239 442 314 531 264 486 b 201 315 219 407 207 365 l 201 3 l 104 3 l 104 614 l 201 614 l 201 517 b 382 628 236 576 294 628 b 575 512 486 628 542 582 "},"n":{"ha":707,"x_min":0,"x_max":0,"o":"m 201 506 b 394 624 238 568 301 624 b 568 553 480 624 530 599 b 624 382 605 510 624 453 l 624 0 l 526 0 l 526 382 b 410 526 526 463 492 526 b 245 441 326 526 278 492 b 201 256 216 395 201 333 l 201 0 l 104 0 l 104 611 l 201 611 l 201 506 "},"o":{"ha":764,"x_min":0,"x_max":0,"o":"m 382 628 b 701 308 556 628 701 483 b 382 -10 701 133 556 -10 b 63 308 208 -10 63 133 b 382 628 63 483 207 628 m 382 88 b 604 308 502 88 604 188 b 382 531 604 430 503 531 b 160 308 261 531 160 430 b 382 88 160 188 261 88 "},"p":{"ha":792,"x_min":0,"x_max":0,"o":"m 432 -14 b 201 104 337 -14 257 31 l 201 -347 l 104 -347 l 104 611 l 201 611 l 201 507 b 432 625 257 580 337 625 b 645 528 516 625 587 593 b 729 306 701 465 729 391 b 645 83 729 220 701 146 b 432 -14 587 19 516 -14 m 417 83 b 632 306 536 83 632 186 b 417 528 632 425 536 528 b 201 306 297 528 201 425 b 417 83 201 186 297 83 "},"q":{"ha":792,"x_min":0,"x_max":0,"o":"m 375 83 b 590 306 495 83 590 186 b 375 528 590 425 495 528 b 160 306 255 528 160 425 b 375 83 160 186 255 83 m 360 625 b 590 507 454 625 534 580 l 590 611 l 688 611 l 688 -347 l 590 -347 l 590 104 b 360 -14 534 31 454 -14 b 147 83 275 -14 204 19 b 63 306 91 146 63 220 b 147 528 63 391 91 465 b 360 625 204 593 275 625 "},"r":{"ha":432,"x_min":0,"x_max":0,"o":"m 418 492 b 346 522 396 512 372 522 b 201 313 248 522 201 408 l 201 0 l 104 0 l 104 611 l 201 611 l 201 485 l 206 510 b 357 624 238 586 289 624 b 418 611 378 624 399 619 l 418 492 "},"s":{"ha":558,"x_min":0,"x_max":0,"o":"m 140 171 b 287 62 159 99 202 62 b 421 162 376 62 421 96 b 325 252 421 201 389 231 b 57 440 216 287 57 299 b 121 578 57 501 78 547 b 273 625 164 609 214 625 b 499 460 403 625 475 574 l 395 460 b 271 544 377 520 342 544 b 159 463 213 544 159 520 b 255 371 159 404 207 386 b 429 318 311 354 378 343 b 523 175 492 288 523 241 b 282 -18 523 43 417 -18 b 38 171 140 -18 59 45 l 140 171 "},"t":{"ha":457,"x_min":0,"x_max":0,"o":"m 28 611 l 181 611 l 181 849 l 278 849 l 278 611 l 429 611 l 429 521 l 278 521 l 278 0 l 181 0 l 181 521 l 28 521 "},"u":{"ha":707,"x_min":0,"x_max":0,"o":"m 318 85 b 526 356 476 85 526 194 l 526 611 l 624 611 l 624 0 l 526 0 l 526 105 b 322 -13 481 27 413 -13 b 104 229 184 -13 104 90 l 104 611 l 201 611 l 201 229 b 318 85 201 149 236 85 "},"v":{"ha":590,"x_min":0,"x_max":0,"o":"m 14 611 l 119 611 l 296 171 l 471 611 l 576 611 l 296 -36 "},"w":{"ha":1006,"x_min":0,"x_max":0,"o":"m 503 415 l 307 -36 l 14 611 l 122 611 l 306 182 l 503 643 l 700 182 l 883 611 l 992 611 l 701 -36 "},"x":{"ha":622,"x_min":0,"x_max":0,"o":"m 311 238 l 158 0 l 35 0 l 249 307 l 35 611 l 158 611 l 311 376 l 464 611 l 588 611 l 374 306 l 588 0 l 464 0 "},"y":{"ha":590,"x_min":0,"x_max":0,"o":"m 74 -347 l 278 100 l 14 611 l 125 611 l 321 199 l 496 611 l 604 611 l 182 -347 "},"z":{"ha":632,"x_min":0,"x_max":0,"o":"m 414 521 l 38 521 l 38 611 l 600 611 l 200 90 l 618 90 l 618 0 l 14 0 "},"{":{"ha":528,"x_min":0,"x_max":0,"o":"m 200 158 b 111 264 200 215 152 247 l 111 358 b 200 493 170 381 200 425 l 200 860 b 346 1042 200 973 237 1042 l 381 1042 b 417 1040 393 1042 405 1041 l 417 971 b 369 976 399 974 383 976 b 299 918 322 976 299 957 l 299 483 b 267 376 299 439 288 403 b 181 306 247 350 218 326 b 226 281 196 298 211 290 b 299 161 274 251 299 211 l 299 -151 b 386 -281 299 -238 328 -281 b 417 -278 395 -281 406 -280 l 417 -346 b 380 -347 404 -347 391 -347 l 331 -347 b 222 -280 277 -347 245 -318 b 200 -156 207 -256 200 -215 l 200 158 "},"|":{"ha":403,"x_min":0,"x_max":0,"o":"m 164 1007 l 240 1007 l 240 -312 l 164 -312 "},"}":{"ha":528,"x_min":0,"x_max":0,"o":"m 182 1042 b 328 860 290 1042 328 973 l 328 493 b 417 358 328 425 357 381 l 417 264 b 328 158 376 247 328 215 l 328 -156 b 197 -347 328 -269 296 -347 l 148 -347 b 111 -346 136 -347 124 -347 l 111 -278 b 142 -281 122 -280 133 -281 b 229 -151 200 -281 229 -238 l 229 161 b 347 306 229 232 285 276 b 229 483 281 342 229 386 l 229 918 b 159 976 229 957 206 976 b 111 971 145 976 129 974 l 111 1040 b 147 1042 123 1041 135 1042 l 182 1042 "},"~":{"ha":731,"x_min":0,"x_max":0,"o":"m 625 1025 b 513 917 592 975 555 939 b 465 904 498 908 482 904 b 415 914 447 904 431 907 b 366 935 398 920 382 927 b 317 956 350 942 333 949 b 261 965 300 962 281 965 b 178 882 233 965 206 938 l 106 929 b 158 1001 121 957 138 981 b 249 1057 195 1038 226 1057 b 310 1047 273 1057 293 1054 b 360 1026 328 1041 344 1034 b 467 994 403 1005 439 994 b 551 1071 495 994 523 1020 "},"Ä":{"ha":857,"x_min":0,"x_max":0,"o":"m 555 1244 b 617 1183 589 1244 617 1217 b 555 1121 617 1148 589 1121 b 494 1183 520 1121 494 1148 b 555 1244 494 1217 520 1244 m 302 1244 b 365 1183 337 1244 365 1217 b 302 1121 365 1148 337 1121 b 241 1183 267 1121 241 1148 b 302 1244 241 1217 267 1244 m 601 347 l 429 768 l 257 347 m 738 0 l 636 257 l 221 257 l 119 0 l 14 0 l 429 974 l 843 0 "},"Å":{"ha":857,"x_min":0,"x_max":0,"o":"m 429 1190 b 369 1133 397 1190 369 1165 b 429 1078 369 1101 397 1078 b 489 1133 463 1078 489 1101 b 429 1190 489 1165 461 1190 m 738 0 l 636 257 l 221 257 l 119 0 l 14 0 l 425 1001 b 293 1133 356 1003 293 1061 b 429 1267 293 1206 357 1267 b 565 1133 501 1267 565 1207 b 433 1001 565 1061 506 1003 l 843 0 m 600 347 l 429 782 l 257 347 "},"Ç":{"ha":1013,"x_min":0,"x_max":0,"o":"m 580 -282 b 489 -215 580 -238 545 -215 b 392 -227 455 -215 419 -223 l 489 -12 b 199 131 377 -2 280 45 b 63 471 108 225 63 339 b 199 813 63 617 123 734 b 533 957 291 909 402 957 b 969 657 746 957 906 817 l 863 657 b 634 842 811 751 735 812 b 519 857 601 852 563 857 b 267 742 416 857 323 799 b 160 471 196 667 160 577 b 267 201 160 366 196 276 b 533 86 341 125 430 86 b 864 289 689 86 807 181 l 971 289 b 566 -13 912 136 762 1 l 501 -148 b 537 -147 503 -147 515 -147 b 656 -277 607 -147 656 -207 b 643 -340 656 -297 652 -319 b 460 -434 617 -402 553 -434 b 315 -405 413 -434 364 -424 l 350 -333 b 477 -354 382 -344 432 -354 b 580 -282 538 -354 580 -338 "},"É":{"ha":769,"x_min":0,"x_max":0,"o":"m 424 1071 l 346 1071 l 457 1269 l 563 1269 m 104 0 l 104 944 l 665 944 l 665 854 l 201 854 l 201 518 l 651 518 l 651 426 l 201 426 l 201 90 l 665 90 l 665 0 "},"Ñ":{"ha":836,"x_min":0,"x_max":0,"o":"m 338 1214 b 278 1132 292 1214 279 1172 l 210 1132 b 342 1304 210 1222 246 1304 b 535 1207 455 1304 452 1207 b 597 1289 581 1207 597 1235 l 665 1289 b 537 1115 664 1198 635 1115 b 338 1214 418 1115 427 1214 m 201 0 l 104 0 l 104 975 l 635 257 l 635 944 l 732 944 l 732 -35 l 201 689 "},"Ö":{"ha":1096,"x_min":0,"x_max":0,"o":"m 673 1194 b 735 1133 707 1194 735 1167 b 673 1071 735 1098 707 1071 b 612 1133 638 1071 612 1098 b 673 1194 612 1167 638 1194 m 420 1194 b 483 1133 455 1194 483 1167 b 420 1071 483 1098 455 1071 b 359 1133 386 1071 359 1098 b 420 1194 359 1167 386 1194 m 547 86 b 936 475 760 86 936 262 b 547 863 936 687 760 863 b 160 475 336 863 160 686 b 547 86 160 263 335 86 m 1033 475 b 736 27 1033 250 897 96 b 547 -11 677 2 614 -11 b 101 286 322 -11 170 125 b 62 475 75 345 62 408 b 359 922 62 700 198 852 b 547 960 418 947 481 960 b 995 664 772 960 926 824 b 1033 475 1021 605 1033 542 "},"Ü":{"ha":871,"x_min":0,"x_max":0,"o":"m 561 1194 b 624 1133 596 1194 624 1167 b 561 1071 624 1098 596 1071 b 500 1133 527 1071 500 1098 b 561 1194 500 1167 527 1194 m 308 1194 b 371 1133 343 1194 371 1167 b 308 1071 371 1098 343 1071 b 247 1133 274 1071 247 1098 b 308 1194 247 1167 274 1194 m 181 299 b 436 85 181 158 288 85 b 669 201 551 85 629 124 b 690 299 683 228 690 261 l 690 944 l 788 944 l 788 313 b 436 -12 788 109 644 -12 b 83 313 227 -12 83 108 l 83 944 l 181 944 l 181 299 "},"á":{"ha":792,"x_min":0,"x_max":0,"o":"m 399 739 l 321 739 l 432 938 l 538 938 m 590 306 b 528 461 590 365 570 417 b 375 528 487 506 436 528 b 222 461 314 528 263 506 b 160 306 180 417 160 365 b 222 150 160 246 180 194 b 375 83 263 106 314 83 b 528 150 436 83 487 106 b 590 306 570 194 590 246 m 590 0 l 590 104 b 573 83 585 97 579 90 b 360 -14 515 19 444 -14 b 147 83 275 -14 204 19 b 63 306 91 146 63 220 b 147 528 63 391 91 465 b 360 625 204 593 275 625 b 573 528 444 625 515 593 b 590 507 579 521 585 514 l 590 611 l 688 611 l 688 0 "},"à":{"ha":792,"x_min":0,"x_max":0,"o":"m 321 739 l 168 938 l 274 938 l 399 739 m 590 306 b 528 461 590 365 570 417 b 375 528 487 506 436 528 b 222 461 314 528 263 506 b 160 306 180 417 160 365 b 222 150 160 246 180 194 b 375 83 263 106 314 83 b 528 150 436 83 487 106 b 590 306 570 194 590 246 m 590 0 l 590 104 b 573 83 585 97 579 90 b 360 -14 515 19 444 -14 b 147 83 275 -14 204 19 b 63 306 91 146 63 220 b 147 528 63 391 91 465 b 360 625 204 593 275 625 b 573 528 444 625 515 593 b 590 507 579 521 585 514 l 590 611 l 688 611 l 688 0 "},"â":{"ha":792,"x_min":0,"x_max":0,"o":"m 260 739 l 161 739 l 314 938 l 406 938 l 558 739 l 460 739 l 360 886 m 590 306 b 528 461 590 365 570 417 b 375 528 487 506 436 528 b 222 461 314 528 263 506 b 160 306 180 417 160 365 b 222 150 160 246 180 194 b 375 83 263 106 314 83 b 528 150 436 83 487 106 b 590 306 570 194 590 246 m 590 0 l 590 104 b 573 83 585 97 579 90 b 360 -14 515 19 444 -14 b 147 83 275 -14 204 19 b 63 306 91 146 63 220 b 147 528 63 391 91 465 b 360 625 204 593 275 625 b 573 528 444 625 515 593 b 590 507 579 521 585 514 l 590 611 l 688 611 l 688 0 "},"ä":{"ha":792,"x_min":0,"x_max":0,"o":"m 485 863 b 548 801 520 863 548 835 b 485 739 548 766 520 739 b 424 801 451 739 424 766 b 485 863 424 835 451 863 m 233 863 b 295 801 267 863 295 835 b 233 739 295 766 267 739 b 172 801 198 739 172 766 b 233 863 172 835 198 863 m 590 306 b 528 461 590 365 570 417 b 375 528 487 506 436 528 b 222 461 314 528 263 506 b 160 306 180 417 160 365 b 222 150 160 246 180 194 b 375 83 263 106 314 83 b 528 150 436 83 487 106 b 590 306 570 194 590 246 m 590 0 l 590 104 b 573 83 585 97 579 90 b 360 -14 515 19 444 -14 b 147 83 275 -14 204 19 b 63 306 91 146 63 220 b 147 528 63 391 91 465 b 360 625 204 593 275 625 b 573 528 444 625 515 593 b 590 507 579 521 585 514 l 590 611 l 688 611 l 688 0 "},"ã":{"ha":792,"x_min":0,"x_max":0,"o":"m 260 837 b 200 756 214 837 201 795 l 132 756 b 264 928 132 845 169 928 b 457 831 377 928 374 831 b 519 913 503 831 519 859 l 588 913 b 459 739 586 822 557 739 b 260 837 341 739 349 837 m 590 306 b 528 461 590 365 570 417 b 375 528 487 506 436 528 b 222 461 314 528 263 506 b 160 306 180 417 160 365 b 222 150 160 246 180 194 b 375 83 263 106 314 83 b 528 150 436 83 487 106 b 590 306 570 194 590 246 m 590 0 l 590 104 b 573 83 585 97 579 90 b 360 -14 515 19 444 -14 b 147 83 275 -14 204 19 b 63 306 91 146 63 220 b 147 528 63 391 91 465 b 360 625 204 593 275 625 b 573 528 444 625 515 593 b 590 507 579 521 585 514 l 590 611 l 688 611 l 688 0 "},"å":{"ha":792,"x_min":0,"x_max":0,"o":"m 360 928 b 300 872 328 928 300 903 b 360 815 300 840 328 815 b 419 872 393 815 419 840 b 360 928 419 903 392 928 m 360 739 b 224 871 288 739 224 798 b 360 1004 224 943 287 1004 b 496 871 433 1004 496 945 b 360 739 496 798 434 739 m 590 306 b 528 461 590 365 570 417 b 375 528 487 506 436 528 b 222 461 314 528 263 506 b 160 306 180 417 160 365 b 222 150 160 246 180 194 b 375 83 263 106 314 83 b 528 150 436 83 487 106 b 590 306 570 194 590 246 m 590 0 l 590 104 b 573 83 585 97 579 90 b 360 -14 515 19 444 -14 b 147 83 275 -14 204 19 b 63 306 91 146 63 220 b 147 528 63 391 91 465 b 360 625 204 593 275 625 b 573 528 444 625 515 593 b 590 507 579 521 585 514 l 590 611 l 688 611 l 688 0 "},"ç":{"ha":724,"x_min":0,"x_max":0,"o":"m 323 -10 b 62 306 173 14 62 150 b 153 529 62 392 93 467 b 375 624 214 592 288 624 b 675 392 526 624 640 517 l 569 392 b 376 539 544 476 481 539 b 162 306 244 539 162 426 b 367 76 162 188 249 76 b 560 200 464 76 533 128 l 669 200 b 471 2 635 102 569 36 b 399 -13 449 -5 425 -10 l 335 -148 b 370 -147 336 -147 348 -147 b 489 -277 441 -147 489 -207 b 476 -340 489 -297 485 -319 b 294 -434 450 -402 387 -434 b 149 -405 246 -434 198 -424 l 183 -333 b 310 -354 215 -344 265 -354 b 413 -282 372 -354 413 -338 b 323 -215 413 -238 378 -215 b 225 -227 289 -215 253 -223 l 323 -10 "},"é":{"ha":757,"x_min":0,"x_max":0,"o":"m 421 739 l 343 739 l 454 938 l 560 938 m 674 179 b 397 -10 631 82 525 -10 b 156 83 285 -10 213 27 b 63 308 94 145 63 220 b 156 534 63 396 94 472 b 382 628 219 597 294 628 b 605 538 467 628 542 598 b 701 319 669 476 701 404 l 701 268 l 164 268 b 382 76 165 160 258 76 b 567 179 462 76 529 103 l 674 179 m 599 351 b 382 542 578 460 507 542 b 165 351 271 542 179 468 l 599 351 "},"è":{"ha":757,"x_min":0,"x_max":0,"o":"m 343 739 l 190 938 l 296 938 l 421 739 m 674 179 b 397 -10 631 82 525 -10 b 156 83 285 -10 213 27 b 63 308 94 145 63 220 b 156 534 63 396 94 472 b 382 628 219 597 294 628 b 605 538 467 628 542 598 b 701 319 669 476 701 404 l 701 268 l 164 268 b 382 76 165 160 258 76 b 567 179 462 76 529 103 l 674 179 m 599 351 b 382 542 578 460 507 542 b 165 351 271 542 179 468 l 599 351 "},"ê":{"ha":757,"x_min":0,"x_max":0,"o":"m 282 739 l 183 739 l 336 938 l 428 938 l 581 739 l 482 739 l 382 886 m 674 179 b 397 -10 631 82 525 -10 b 156 83 285 -10 213 27 b 63 308 94 145 63 220 b 156 534 63 396 94 472 b 382 628 219 597 294 628 b 605 538 467 628 542 598 b 701 319 669 476 701 404 l 701 268 l 164 268 b 382 76 165 160 258 76 b 567 179 462 76 529 103 l 674 179 m 599 351 b 382 542 578 460 507 542 b 165 351 271 542 179 468 l 599 351 "},"ë":{"ha":757,"x_min":0,"x_max":0,"o":"m 508 863 b 570 801 542 863 570 835 b 508 739 570 766 542 739 b 447 801 473 739 447 766 b 508 863 447 835 473 863 m 255 863 b 317 801 289 863 317 835 b 255 739 317 766 289 739 b 194 801 220 739 194 766 b 255 863 194 835 220 863 m 674 179 b 397 -10 631 82 525 -10 b 156 83 285 -10 213 27 b 63 308 94 145 63 220 b 156 534 63 396 94 472 b 382 628 219 597 294 628 b 605 538 467 628 542 598 b 701 319 669 476 701 404 l 701 268 l 164 268 b 382 76 165 160 258 76 b 567 179 462 76 529 103 l 674 179 m 599 351 b 382 542 578 460 507 542 b 165 351 271 542 179 468 l 599 351 "},"í":{"ha":318,"x_min":0,"x_max":0,"o":"m 199 739 l 121 739 l 232 938 l 338 938 m 111 0 l 111 611 l 208 611 l 208 0 "},"ì":{"ha":318,"x_min":0,"x_max":0,"o":"m 121 739 l -32 938 l 74 938 l 199 739 m 111 0 l 111 611 l 208 611 l 208 0 "},"î":{"ha":318,"x_min":0,"x_max":0,"o":"m 60 739 l -39 739 l 114 938 l 206 938 l 358 739 l 260 739 l 160 886 m 111 0 l 111 611 l 208 611 l 208 0 "},"ï":{"ha":318,"x_min":0,"x_max":0,"o":"m 285 863 b 348 801 320 863 348 835 b 285 739 348 766 320 739 b 224 801 251 739 224 766 b 285 863 224 835 251 863 m 33 863 b 95 801 67 863 95 835 b 33 739 95 766 67 739 b -28 801 -2 739 -28 766 b 33 863 -28 835 -2 863 m 111 0 l 111 611 l 208 611 l 208 0 "},"ñ":{"ha":707,"x_min":0,"x_max":0,"o":"m 264 837 b 204 756 218 837 205 795 l 136 756 b 268 928 136 845 173 928 b 461 831 381 928 378 831 b 524 913 507 831 524 859 l 592 913 b 463 739 591 822 561 739 b 264 837 345 739 353 837 m 201 506 b 394 624 238 568 301 624 b 568 553 480 624 530 599 b 624 382 605 510 624 453 l 624 0 l 526 0 l 526 382 b 410 526 526 463 492 526 b 245 441 326 526 278 492 b 201 256 216 395 201 333 l 201 0 l 104 0 l 104 611 l 201 611 l 201 506 "},"ó":{"ha":764,"x_min":0,"x_max":0,"o":"m 421 739 l 343 739 l 454 938 l 560 938 m 382 628 b 701 308 556 628 701 483 b 382 -10 701 133 556 -10 b 63 308 208 -10 63 133 b 382 628 63 483 207 628 m 382 88 b 604 308 502 88 604 188 b 382 531 604 430 503 531 b 160 308 261 531 160 430 b 382 88 160 188 261 88 "},"ò":{"ha":764,"x_min":0,"x_max":0,"o":"m 343 739 l 190 938 l 296 938 l 421 739 m 382 628 b 701 308 556 628 701 483 b 382 -10 701 133 556 -10 b 63 308 208 -10 63 133 b 382 628 63 483 207 628 m 382 88 b 604 308 502 88 604 188 b 382 531 604 430 503 531 b 160 308 261 531 160 430 b 382 88 160 188 261 88 "},"ô":{"ha":764,"x_min":0,"x_max":0,"o":"m 282 739 l 183 739 l 336 938 l 428 938 l 581 739 l 482 739 l 382 886 m 382 628 b 701 308 556 628 701 483 b 382 -10 701 133 556 -10 b 63 308 208 -10 63 133 b 382 628 63 483 207 628 m 382 88 b 604 308 502 88 604 188 b 382 531 604 430 503 531 b 160 308 261 531 160 430 b 382 88 160 188 261 88 "},"ö":{"ha":764,"x_min":0,"x_max":0,"o":"m 508 863 b 570 801 542 863 570 835 b 508 739 570 766 542 739 b 447 801 473 739 447 766 b 508 863 447 835 473 863 m 255 863 b 317 801 289 863 317 835 b 255 739 317 766 289 739 b 194 801 220 739 194 766 b 255 863 194 835 220 863 m 382 628 b 701 308 556 628 701 483 b 382 -10 701 133 556 -10 b 63 308 208 -10 63 133 b 382 628 63 483 207 628 m 382 88 b 604 308 502 88 604 188 b 382 531 604 430 503 531 b 160 308 261 531 160 430 b 382 88 160 188 261 88 "},"õ":{"ha":764,"x_min":0,"x_max":0,"o":"m 282 837 b 222 756 237 837 224 795 l 154 756 b 286 928 154 845 191 928 b 479 831 399 928 396 831 b 542 913 525 831 542 859 l 610 913 b 481 739 609 822 579 739 b 282 837 363 739 372 837 m 382 628 b 701 308 556 628 701 483 b 382 -10 701 133 556 -10 b 63 308 208 -10 63 133 b 382 628 63 483 207 628 m 382 88 b 604 308 502 88 604 188 b 382 531 604 430 503 531 b 160 308 261 531 160 430 b 382 88 160 188 261 88 "},"ú":{"ha":707,"x_min":0,"x_max":0,"o":"m 392 739 l 314 739 l 425 938 l 531 938 m 318 85 b 526 356 476 85 526 194 l 526 611 l 624 611 l 624 0 l 526 0 l 526 105 b 322 -13 481 27 413 -13 b 104 229 184 -13 104 90 l 104 611 l 201 611 l 201 229 b 318 85 201 149 236 85 "},"ù":{"ha":707,"x_min":0,"x_max":0,"o":"m 328 739 l 175 938 l 281 938 l 406 739 m 318 85 b 526 356 476 85 526 194 l 526 611 l 624 611 l 624 0 l 526 0 l 526 105 b 322 -13 481 27 413 -13 b 104 229 184 -13 104 90 l 104 611 l 201 611 l 201 229 b 318 85 201 149 236 85 "},"û":{"ha":707,"x_min":0,"x_max":0,"o":"m 267 739 l 168 739 l 321 938 l 413 938 l 565 739 l 467 739 l 367 886 m 318 85 b 526 356 476 85 526 194 l 526 611 l 624 611 l 624 0 l 526 0 l 526 105 b 322 -13 481 27 413 -13 b 104 229 184 -13 104 90 l 104 611 l 201 611 l 201 229 b 318 85 201 149 236 85 "},"ü":{"ha":707,"x_min":0,"x_max":0,"o":"m 494 863 b 556 801 528 863 556 835 b 494 739 556 766 528 739 b 433 801 459 739 433 766 b 494 863 433 835 459 863 m 241 863 b 303 801 276 863 303 835 b 241 739 303 766 276 739 b 180 801 206 739 180 766 b 241 863 180 835 206 863 m 318 85 b 526 356 476 85 526 194 l 526 611 l 624 611 l 624 0 l 526 0 l 526 105 b 322 -13 481 27 413 -13 b 104 229 184 -13 104 90 l 104 611 l 201 611 l 201 229 b 318 85 201 149 236 85 "},"°":{"ha":639,"x_min":0,"x_max":0,"o":"m 451 739 b 383 858 451 797 429 836 b 319 869 367 866 345 869 b 215 827 273 869 238 855 b 188 739 197 804 188 775 b 208 656 188 701 194 673 b 254 619 222 639 238 627 b 319 608 271 612 292 608 b 384 619 345 608 367 612 b 425 649 401 627 415 637 b 451 739 443 671 451 701 m 549 740 b 531 655 549 709 543 680 b 483 590 520 629 504 608 b 319 533 441 552 386 533 b 156 590 252 533 198 552 b 90 740 112 628 90 678 b 157 890 90 800 113 850 b 319 947 200 928 254 947 b 482 890 384 947 439 928 b 549 740 526 850 549 800 "},"•":{"ha":417,"x_min":0,"x_max":0,"o":"m 367 475 b 320 363 367 431 351 394 b 208 317 289 332 252 317 b 97 363 165 317 128 332 b 50 475 66 394 50 431 b 97 587 50 519 66 556 b 208 633 128 618 165 633 b 320 587 252 633 289 618 b 367 475 351 556 367 519 "},"¶":{"ha":722,"x_min":0,"x_max":0,"o":"m 513 0 l 513 850 l 425 850 l 425 0 l 364 0 l 364 289 b 151 393 277 302 206 337 b 67 600 95 450 67 519 b 159 819 67 686 97 759 b 381 910 220 880 294 910 l 572 910 l 572 0 "},"ß":{"ha":767,"x_min":0,"x_max":0,"o":"m 322 93 l 418 93 b 557 152 470 93 517 113 b 617 294 597 191 617 238 b 557 427 617 348 597 392 b 418 478 518 461 472 478 l 371 478 l 371 564 l 385 564 b 495 604 429 564 465 577 b 543 711 527 633 543 669 b 495 817 543 753 527 788 b 384 857 465 844 428 857 b 281 833 340 857 306 849 b 228 769 257 816 239 795 b 208 679 217 742 210 712 b 206 578 206 646 206 612 l 206 0 l 106 0 l 106 612 b 162 861 106 723 124 806 b 385 958 206 926 280 958 b 566 894 454 958 515 937 b 646 724 619 850 646 793 b 610 612 646 681 634 644 b 521 536 587 580 557 555 b 661 441 576 515 623 483 b 718 285 699 399 718 347 b 626 81 718 205 688 137 b 418 0 567 27 498 0 l 326 0 "},"®":{"ha":1038,"x_min":0,"x_max":0,"o":"m 610 614 b 585 666 610 635 601 653 b 528 686 568 679 549 686 l 463 686 l 463 542 l 528 542 b 585 562 549 542 568 548 b 610 614 601 575 610 593 m 613 303 l 525 492 l 463 492 l 463 303 l 399 303 l 399 738 l 528 738 b 631 700 567 738 601 725 b 674 614 659 677 674 648 b 655 559 674 595 667 577 b 583 497 642 541 619 520 l 694 303 m 883 521 b 776 770 883 619 848 702 b 518 872 705 838 619 872 b 262 770 417 872 332 838 b 154 521 190 700 154 617 b 262 270 154 423 190 340 b 518 168 332 202 417 168 b 776 270 619 168 705 202 b 883 521 848 338 883 422 m 971 521 b 935 351 971 461 959 404 b 838 211 911 297 878 251 b 694 117 797 171 749 140 b 518 83 639 95 580 83 b 199 211 394 83 287 126 b 102 351 158 251 126 297 b 67 521 78 404 67 461 b 199 829 67 641 111 744 b 518 957 287 914 394 957 b 694 923 580 957 639 946 b 838 829 749 900 797 869 b 935 690 878 789 911 743 b 971 521 959 637 971 581 "},"©":{"ha":1038,"x_min":0,"x_max":0,"o":"m 735 421 b 515 289 684 333 611 289 b 344 358 450 289 393 312 b 274 522 297 404 274 458 b 344 687 274 587 297 642 b 515 757 393 734 450 757 b 665 709 572 757 622 741 b 736 622 694 687 718 658 l 653 622 b 515 683 619 663 573 683 b 400 636 470 683 431 668 b 351 522 368 604 351 566 b 400 410 351 480 368 442 b 526 363 431 378 473 363 b 651 421 578 363 620 382 l 735 421 m 883 521 b 776 770 883 619 848 702 b 518 872 705 838 619 872 b 262 770 417 872 332 838 b 154 521 190 700 154 617 b 262 270 154 423 190 340 b 518 168 332 202 417 168 b 776 270 619 168 705 202 b 883 521 848 338 883 422 m 971 521 b 935 351 971 461 959 404 b 838 211 911 297 878 251 b 694 117 797 171 749 140 b 518 83 639 95 580 83 b 199 211 394 83 287 126 b 101 351 158 251 125 297 b 65 521 77 404 65 461 b 101 690 65 581 77 637 b 199 829 125 743 158 789 b 518 957 287 914 394 957 b 694 923 580 957 639 946 b 838 829 749 900 797 869 b 935 690 878 789 911 743 b 971 521 959 637 971 581 "},"™":{"ha":1082,"x_min":0,"x_max":0,"o":"m 256 878 l 256 469 l 178 469 l 178 878 l 33 878 l 33 944 l 401 944 l 401 878 m 960 469 l 889 868 l 772 469 l 689 469 l 571 868 l 501 469 l 413 469 l 506 944 l 611 944 l 731 557 l 850 944 l 956 944 l 1049 469 "},"´":{"ha":258,"x_min":0,"x_max":0,"o":"m 106 1042 l 28 1042 l 139 1240 l 244 1240 "},"¨":{"ha":376,"x_min":0,"x_max":0,"o":"m 314 1015 b 376 953 348 1015 376 988 b 314 892 376 919 348 892 b 253 953 279 892 253 919 b 314 1015 253 988 279 1015 m 61 1015 b 124 953 96 1015 124 988 b 61 892 124 919 96 892 b 0 953 27 892 0 919 b 61 1015 0 988 27 1015 "},"Æ":{"ha":1136,"x_min":0,"x_max":0,"o":"m 461 751 l 271 329 l 469 329 l 469 808 m 469 243 l 235 243 l 129 0 l 21 0 l 464 944 l 1032 944 l 1032 844 l 569 842 l 569 519 l 1018 522 l 1018 422 l 569 419 l 569 97 l 1032 100 l 1032 0 l 469 0 "},"Ø":{"ha":1096,"x_min":0,"x_max":0,"o":"m 1033 475 b 995 286 1033 408 1021 345 b 891 131 970 227 935 175 b 736 27 847 87 795 53 b 547 -11 677 2 614 -11 b 359 27 481 -11 418 2 b 234 105 313 47 271 73 l 172 43 l 118 97 l 180 159 b 101 286 147 196 121 239 b 63 475 75 345 63 408 b 101 664 63 542 75 605 b 205 818 126 723 161 775 b 359 922 249 862 300 896 b 547 960 418 947 481 960 b 736 922 614 960 677 947 b 864 842 784 901 827 875 l 924 901 l 978 847 l 919 788 b 995 664 950 752 975 710 b 1033 475 1021 605 1033 542 m 303 173 b 547 86 373 115 454 86 b 822 200 655 86 746 124 b 936 475 898 276 936 368 b 849 719 936 568 907 649 l 303 173 m 795 773 b 547 863 725 833 642 863 b 274 749 441 863 350 825 b 160 475 198 673 160 581 b 248 227 160 380 189 298 "},"æ":{"ha":1204,"x_min":0,"x_max":0,"o":"m 160 196 b 292 79 160 110 208 79 b 538 165 386 79 481 120 b 503 296 518 202 507 245 l 503 297 l 229 297 b 160 196 183 273 160 239 m 1039 358 b 823 531 1017 452 935 531 b 606 358 711 531 628 452 l 1039 358 m 1114 179 b 835 -10 1070 81 965 -10 b 578 103 727 -10 641 28 b 349 -5 520 51 444 15 b 265 -14 320 -11 292 -14 b 63 183 143 -14 63 66 b 194 375 63 280 123 345 l 503 375 l 503 410 b 337 539 503 494 438 539 b 252 515 310 539 282 531 b 188 444 222 500 200 476 l 99 482 b 199 592 120 533 153 569 b 340 625 244 614 291 625 b 575 511 449 625 535 587 b 817 628 627 574 712 628 b 1045 538 915 628 992 588 b 1142 319 1109 476 1142 404 l 1142 268 l 604 268 b 822 88 622 171 712 88 b 1003 179 902 88 966 130 l 1114 179 "},"ø":{"ha":764,"x_min":0,"x_max":0,"o":"m 701 308 b 608 83 701 220 670 145 b 382 -10 545 21 469 -10 b 187 56 308 -10 243 12 l 114 -17 l 60 38 l 132 110 b 63 308 86 166 63 232 b 156 534 63 396 94 472 b 382 628 219 597 294 628 b 580 559 457 628 523 605 l 649 628 l 703 574 l 634 505 b 701 308 679 448 701 383 m 256 126 b 382 88 293 100 335 88 b 539 153 443 88 495 109 b 604 308 582 196 604 248 b 565 435 604 356 591 398 l 256 126 m 511 490 b 382 531 473 517 430 531 b 225 465 321 531 269 509 b 160 308 181 422 160 369 b 202 180 160 260 174 217 "},"…":{"ha":926,"x_min":0,"x_max":0,"o":"m 185 -14 b 128 9 163 -14 145 -6 b 104 64 112 24 104 43 b 128 119 104 85 112 104 b 185 143 144 135 163 143 b 242 120 207 143 226 135 b 267 65 259 105 267 86 b 242 9 267 43 258 24 b 185 -14 225 -6 206 -14 m 463 -14 b 406 9 441 -14 422 -6 b 382 64 390 24 382 43 b 406 119 382 85 390 104 b 463 143 421 135 440 143 b 520 120 485 143 504 135 b 544 65 536 105 544 86 b 519 9 544 43 536 24 b 463 -14 503 -6 484 -14 m 740 -14 b 684 9 719 -14 700 -6 b 660 64 668 24 660 43 b 683 119 660 85 668 104 b 740 143 699 135 718 143 b 798 120 763 143 782 135 b 822 65 814 105 822 86 b 797 9 822 43 814 24 b 740 -14 781 -6 762 -14 "}," ":{"ha":375,"x_min":0,"x_max":0,"o":""},"À":{"ha":857,"x_min":0,"x_max":0,"o":"m 390 1121 l 238 1319 l 343 1319 l 468 1121 m 601 347 l 429 768 l 257 347 m 738 0 l 636 257 l 221 257 l 119 0 l 14 0 l 429 974 l 843 0 "},"Ã":{"ha":857,"x_min":0,"x_max":0,"o":"m 329 1219 b 269 1137 284 1219 271 1177 l 201 1137 b 333 1310 202 1227 238 1310 b 526 1213 447 1310 444 1213 b 589 1294 572 1213 589 1241 l 657 1294 b 528 1121 656 1204 626 1121 b 329 1219 410 1121 419 1219 m 601 347 l 429 768 l 257 347 m 738 0 l 636 257 l 221 257 l 119 0 l 14 0 l 429 974 l 843 0 "},"Õ":{"ha":1096,"x_min":0,"x_max":0,"o":"m 447 1169 b 387 1087 402 1169 389 1127 l 319 1087 b 451 1260 320 1177 356 1260 b 644 1163 565 1260 562 1163 b 707 1244 690 1163 707 1191 l 775 1244 b 647 1071 774 1154 744 1071 b 447 1169 528 1071 537 1169 m 547 86 b 936 475 760 86 936 262 b 547 863 936 687 760 863 b 160 475 336 863 160 686 b 547 86 160 263 335 86 m 1033 475 b 736 27 1033 250 897 96 b 547 -11 677 2 614 -11 b 101 286 322 -11 170 125 b 62 475 75 345 62 408 b 359 922 62 700 198 852 b 547 960 418 947 481 960 b 995 664 772 960 926 824 b 1033 475 1021 605 1033 542 "},"Œ":{"ha":1386,"x_min":0,"x_max":0,"o":"m 199 472 b 313 203 199 365 237 275 b 588 97 387 132 478 97 l 740 97 l 740 847 l 588 847 b 313 742 478 847 387 812 b 199 472 237 670 199 580 m 104 472 b 142 662 104 541 117 604 b 246 811 168 720 202 769 b 400 909 289 853 341 885 b 590 944 459 933 523 944 l 1301 945 l 1301 855 l 838 855 l 838 519 l 1288 519 l 1288 427 l 838 427 l 838 91 l 1301 91 l 1301 1 l 838 1 l 838 0 l 590 0 b 400 35 523 0 459 12 b 246 133 341 59 289 92 b 142 283 202 175 168 225 b 104 472 117 341 104 404 "},"œ":{"ha":1304,"x_min":0,"x_max":0,"o":"m 604 308 b 539 465 604 369 582 422 b 382 531 495 509 443 531 b 225 465 321 531 269 509 b 160 308 181 422 160 369 b 225 153 160 248 181 196 b 382 88 269 109 321 88 b 539 153 443 88 495 109 b 604 308 582 196 604 248 m 1140 358 b 1062 483 1127 409 1101 451 b 924 531 1022 515 976 531 b 785 483 872 531 825 515 b 707 358 744 451 718 409 l 1140 358 m 653 139 b 537 30 623 93 584 56 b 390 -10 489 3 440 -10 b 258 15 340 -10 296 -1 b 156 83 219 32 185 55 b 63 308 94 145 63 220 b 156 534 63 396 94 472 b 382 628 219 597 294 628 b 537 588 438 628 489 615 b 653 479 584 562 623 525 b 769 589 682 526 721 563 b 913 628 816 615 865 628 b 1044 603 962 628 1006 620 b 1147 537 1083 587 1117 565 b 1242 319 1210 477 1242 404 l 1242 268 l 704 268 b 781 139 714 216 739 173 b 924 87 823 105 871 87 b 1024 112 959 87 992 96 b 1104 179 1056 128 1083 150 l 1215 179 b 1097 41 1189 121 1150 75 b 929 -10 1044 7 988 -10 b 769 29 870 -10 816 3 b 653 139 721 55 682 92 "},"–":{"ha":542,"x_min":0,"x_max":0,"o":"m 32 250 l 32 331 l 511 331 l 511 250 "},"—":{"ha":957,"x_min":0,"x_max":0,"o":"m 32 250 l 32 331 l 926 331 l 926 250 "},"“":{"ha":501,"x_min":0,"x_max":0,"o":"m 408 1042 l 467 1042 l 386 682 l 253 682 m 190 1042 l 249 1042 l 168 682 l 35 682 "},"”":{"ha":501,"x_min":0,"x_max":0,"o":"m 93 682 l 35 682 l 115 1042 l 249 1042 m 311 682 l 253 682 l 333 1042 l 467 1042 "},"‘":{"ha":283,"x_min":0,"x_max":0,"o":"m 190 1042 l 249 1042 l 168 682 l 35 682 "},"’":{"ha":283,"x_min":0,"x_max":0,"o":"m 93 682 l 35 682 l 115 1042 l 249 1042 "},"÷":{"ha":569,"x_min":0,"x_max":0,"o":"m 372 79 b 349 25 372 58 365 40 b 294 3 334 10 316 3 b 240 25 273 3 255 10 b 218 79 225 40 218 58 b 240 134 218 100 225 119 b 294 157 255 149 273 157 b 349 134 316 157 334 149 b 372 79 365 119 372 100 m 53 269 l 53 349 l 518 349 l 518 269 m 372 529 b 349 475 372 508 365 490 b 294 453 334 460 316 453 b 240 475 273 453 255 460 b 218 529 225 490 218 508 b 240 584 218 550 225 569 b 294 607 255 599 273 607 b 349 584 316 607 334 599 b 372 529 365 569 372 550 "},"ÿ":{"ha":590,"x_min":0,"x_max":0,"o":"m 64 -347 l 269 100 l 14 611 l 125 611 l 321 201 l 496 611 l 604 611 l 182 -347 m 468 824 b 486 780 480 812 486 797 b 468 736 486 763 480 748 b 424 718 456 724 441 718 b 380 736 406 718 391 724 b 362 780 368 748 362 763 b 380 824 362 797 368 812 b 424 842 391 836 406 842 b 468 824 441 842 456 836 m 215 824 b 233 780 227 812 233 797 b 215 736 233 763 227 748 b 171 718 203 724 188 718 b 127 736 153 718 139 724 b 110 780 116 748 110 763 b 127 824 110 797 116 812 b 171 842 139 836 153 842 b 215 824 188 842 203 836 "},"⁄":{"ha":617,"x_min":0,"x_max":0,"o":"m 156 0 l 63 0 l 460 943 l 554 943 "},"ﬁ":{"ha":792,"x_min":0,"x_max":0,"o":"m 585 0 l 585 521 l 269 521 l 269 0 l 172 0 l 172 521 l 49 521 l 49 611 l 172 611 l 172 847 b 363 1042 172 976 230 1042 l 432 1042 l 432 951 l 349 951 b 269 875 291 951 269 926 l 269 611 l 682 611 l 682 0 m 633 863 b 694 801 667 863 694 835 b 633 739 694 767 667 739 b 571 801 599 739 571 767 b 633 863 571 835 599 863 "},"ﬂ":{"ha":779,"x_min":0,"x_max":0,"o":"m 578 0 l 578 521 l 269 521 l 269 0 l 172 0 l 172 521 l 49 521 l 49 611 l 172 611 l 172 847 b 363 1042 172 976 230 1042 l 432 1042 l 432 951 l 349 951 b 269 875 291 951 269 926 l 269 611 l 578 611 l 578 1042 l 675 1042 l 675 0 "},"Â":{"ha":857,"x_min":0,"x_max":0,"o":"m 329 1121 l 231 1121 l 383 1319 l 475 1319 l 628 1121 l 529 1121 l 429 1268 m 601 347 l 429 768 l 257 347 m 738 0 l 636 257 l 221 257 l 119 0 l 14 0 l 429 974 l 843 0 "},"Ê":{"ha":769,"x_min":0,"x_max":0,"o":"m 285 1071 l 186 1071 l 339 1269 l 431 1269 l 583 1071 l 485 1071 l 385 1218 m 104 0 l 104 944 l 665 944 l 665 854 l 201 854 l 201 518 l 651 518 l 651 426 l 201 426 l 201 90 l 665 90 l 665 0 "},"Á":{"ha":857,"x_min":0,"x_max":0,"o":"m 468 1121 l 390 1121 l 501 1319 l 607 1319 m 601 347 l 429 768 l 257 347 m 738 0 l 636 257 l 221 257 l 119 0 l 14 0 l 429 974 l 843 0 "},"Ë":{"ha":769,"x_min":0,"x_max":0,"o":"m 510 1194 b 573 1133 545 1194 573 1167 b 510 1071 573 1098 545 1071 b 449 1133 476 1071 449 1098 b 510 1194 449 1167 476 1194 m 258 1194 b 320 1133 292 1194 320 1167 b 258 1071 320 1098 292 1071 b 197 1133 223 1071 197 1098 b 258 1194 197 1167 223 1194 m 104 0 l 104 944 l 665 944 l 665 854 l 201 854 l 201 518 l 651 518 l 651 426 l 201 426 l 201 90 l 665 90 l 665 0 "},"È":{"ha":769,"x_min":0,"x_max":0,"o":"m 346 1071 l 193 1269 l 299 1269 l 424 1071 m 104 0 l 104 944 l 665 944 l 665 854 l 201 854 l 201 518 l 651 518 l 651 426 l 201 426 l 201 90 l 665 90 l 665 0 "},"Í":{"ha":306,"x_min":0,"x_max":0,"o":"m 192 1071 l 114 1071 l 225 1269 l 331 1269 m 104 0 l 104 944 l 201 944 l 201 0 "},"Î":{"ha":306,"x_min":0,"x_max":0,"o":"m 53 1071 l -46 1071 l 107 1269 l 199 1269 l 351 1071 l 253 1071 l 153 1218 m 104 0 l 104 944 l 201 944 l 201 0 "},"Ï":{"ha":306,"x_min":0,"x_max":0,"o":"m 278 1194 b 341 1133 313 1194 341 1167 b 278 1071 341 1098 313 1071 b 217 1133 244 1071 217 1098 b 278 1194 217 1167 244 1194 m 26 1194 b 88 1133 60 1194 88 1167 b 26 1071 88 1098 60 1071 b -35 1133 -9 1071 -35 1098 b 26 1194 -35 1167 -9 1194 m 104 0 l 104 944 l 201 944 l 201 0 "},"Ì":{"ha":306,"x_min":0,"x_max":0,"o":"m 114 1071 l -39 1269 l 67 1269 l 192 1071 m 104 0 l 104 944 l 201 944 l 201 0 "},"Ó":{"ha":1096,"x_min":0,"x_max":0,"o":"m 586 1071 l 508 1071 l 619 1269 l 725 1269 m 547 86 b 936 475 760 86 936 262 b 547 863 936 687 760 863 b 160 475 336 863 160 686 b 547 86 160 263 335 86 m 1033 475 b 736 27 1033 250 897 96 b 547 -11 677 2 614 -11 b 101 286 322 -11 170 125 b 62 475 75 345 62 408 b 359 922 62 700 198 852 b 547 960 418 947 481 960 b 995 664 772 960 926 824 b 1033 475 1021 605 1033 542 "},"Ô":{"ha":1096,"x_min":0,"x_max":0,"o":"m 447 1071 l 349 1071 l 501 1269 l 593 1269 l 746 1071 l 647 1071 l 547 1218 m 547 86 b 936 475 760 86 936 262 b 547 863 936 687 760 863 b 160 475 336 863 160 686 b 547 86 160 263 335 86 m 1033 475 b 736 27 1033 250 897 96 b 547 -11 677 2 614 -11 b 101 286 322 -11 170 125 b 62 475 75 345 62 408 b 359 922 62 700 198 852 b 547 960 418 947 481 960 b 995 664 772 960 926 824 b 1033 475 1021 605 1033 542 "},"Ò":{"ha":1096,"x_min":0,"x_max":0,"o":"m 508 1071 l 356 1269 l 461 1269 l 586 1071 m 547 86 b 936 475 760 86 936 262 b 547 863 936 687 760 863 b 160 475 336 863 160 686 b 547 86 160 263 335 86 m 1033 475 b 736 27 1033 250 897 96 b 547 -11 677 2 614 -11 b 101 286 322 -11 170 125 b 62 475 75 345 62 408 b 359 922 62 700 198 852 b 547 960 418 947 481 960 b 995 664 772 960 926 824 b 1033 475 1021 605 1033 542 "},"Ú":{"ha":871,"x_min":0,"x_max":0,"o":"m 474 1071 l 397 1071 l 508 1269 l 613 1269 m 181 299 b 436 85 181 158 288 85 b 669 201 551 85 629 124 b 690 299 683 228 690 261 l 690 944 l 788 944 l 788 313 b 436 -12 788 109 644 -12 b 83 313 227 -12 83 108 l 83 944 l 181 944 l 181 299 "},"Û":{"ha":871,"x_min":0,"x_max":0,"o":"m 335 1071 l 237 1071 l 390 1269 l 481 1269 l 634 1071 l 535 1071 l 435 1218 m 181 299 b 436 85 181 158 288 85 b 669 201 551 85 629 124 b 690 299 683 228 690 261 l 690 944 l 788 944 l 788 313 b 436 -12 788 109 644 -12 b 83 313 227 -12 83 108 l 83 944 l 181 944 l 181 299 "},"Ù":{"ha":871,"x_min":0,"x_max":0,"o":"m 397 1071 l 244 1269 l 349 1269 l 474 1071 m 181 299 b 436 85 181 158 288 85 b 669 201 551 85 629 124 b 690 299 683 228 690 261 l 690 944 l 788 944 l 788 313 b 436 -12 788 109 644 -12 b 83 313 227 -12 83 108 l 83 944 l 181 944 l 181 299 "},"ı":{"ha":318,"x_min":0,"x_max":0,"o":"m 111 0 l 111 611 l 208 611 l 208 0 "},"ˆ":{"ha":397,"x_min":0,"x_max":0,"o":"m 99 844 l 0 844 l 153 1043 l 244 1043 l 397 844 l 299 844 l 199 992 "},"˜":{"ha":456,"x_min":0,"x_max":0,"o":"m 128 832 b 68 750 82 832 69 790 l 0 750 b 132 922 0 840 37 922 b 325 825 245 922 242 825 b 388 907 371 825 388 853 l 456 907 b 327 733 455 816 425 733 b 128 832 209 733 217 832 "},"¯":{"ha":0,"x_min":0,"x_max":0,"o":""},"˘":{"ha":0,"x_min":0,"x_max":0,"o":""},"˙":{"ha":0,"x_min":0,"x_max":0,"o":""},"˚":{"ha":271,"x_min":0,"x_max":0,"o":"m 136 1133 b 76 1077 104 1133 76 1108 b 137 1021 76 1045 104 1021 b 196 1077 169 1021 196 1045 b 136 1133 196 1108 168 1133 m 136 944 b 0 1076 64 944 0 1003 b 136 1210 0 1149 63 1210 b 272 1076 209 1210 272 1151 b 136 944 272 1004 211 944 "},"¸":{"ha":340,"x_min":0,"x_max":0,"o":"m 186 -64 b 222 -62 188 -63 199 -62 b 341 -193 292 -62 341 -123 b 328 -256 341 -213 337 -235 b 193 -347 307 -307 262 -337 b 145 -350 177 -349 161 -350 b 0 -321 97 -350 49 -340 l 35 -249 b 161 -270 67 -260 116 -270 b 263 -217 213 -270 258 -257 b 264 -197 264 -210 264 -203 b 197 -132 264 -160 242 -139 b 174 -130 190 -131 182 -130 b 76 -143 140 -130 104 -139 l 179 83 l 257 85 l 186 -64 "},"ˇ":{"ha":1472,"x_min":0,"x_max":0,"o":""},"Ð":{"ha":900,"x_min":0,"x_max":0,"o":"m 743 472 b 629 742 743 580 705 670 b 354 847 555 812 463 847 l 201 847 l 201 489 l 476 489 l 476 410 l 201 410 l 201 97 l 354 97 b 629 203 463 97 555 132 b 743 472 705 275 743 365 m 838 472 b 799 283 838 404 825 341 b 696 133 774 225 739 175 b 542 35 652 92 601 59 b 351 0 482 12 419 0 l 104 0 l 104 410 l 11 410 l 11 489 l 104 489 l 104 944 l 351 944 b 542 909 419 944 482 933 b 696 811 601 885 652 853 b 799 662 739 769 774 720 b 838 472 825 604 838 541 "},"ð":{"ha":792,"x_min":0,"x_max":0,"o":"m 590 0 l 590 104 b 573 83 585 97 579 90 b 360 -14 515 19 444 -14 b 147 83 275 -14 204 19 b 63 306 91 146 63 220 b 147 528 63 391 91 465 b 360 625 204 593 275 625 b 573 528 444 625 515 593 b 590 507 579 521 585 514 l 590 758 l 313 758 l 313 838 l 590 838 l 590 1042 l 688 1042 l 688 838 l 778 838 l 778 758 l 688 758 l 688 0 m 590 306 b 528 461 590 365 570 417 b 375 528 487 506 436 528 b 222 461 314 528 263 506 b 160 306 180 417 160 365 b 222 150 160 246 180 194 b 375 83 263 106 314 83 b 528 150 436 83 487 106 b 590 306 570 194 590 246 "},"Ý":{"ha":840,"x_min":0,"x_max":0,"o":"m 459 1071 l 381 1071 l 492 1269 l 598 1269 m 469 0 l 372 0 l 372 444 l 14 944 l 139 944 l 421 540 l 703 944 l 826 944 l 469 444 "},"ý":{"ha":590,"x_min":0,"x_max":0,"o":"m 348 739 l 270 739 l 381 938 l 487 938 m 74 -347 l 278 100 l 14 611 l 125 611 l 321 199 l 496 611 l 604 611 l 182 -347 "},"−":{"ha":500,"x_min":0,"x_max":0,"o":"m 53 268 l 53 347 l 449 347 l 449 268 "},"×":{"ha":639,"x_min":0,"x_max":0,"o":"m 481 92 l 319 253 l 158 92 l 103 147 l 263 308 l 103 469 l 158 526 l 319 365 l 481 526 l 536 469 l 376 308 l 536 147 "},"":{"ha":1286,"x_min":0,"x_max":0,"o":"m 394 343 b 369 319 394 327 386 319 b 353 326 363 319 357 322 b 346 343 348 330 346 336 l 346 707 b 353 725 346 714 348 720 b 370 732 357 730 363 732 b 388 725 377 732 383 730 b 394 707 392 720 394 714 l 394 343 m 551 549 b 576 525 568 549 576 541 b 551 501 576 509 568 501 l 461 501 b 438 525 445 501 438 509 b 461 549 438 541 445 549 l 551 549 m 643 732 b 667 707 659 732 667 724 l 667 343 b 643 319 667 327 659 319 b 619 343 627 319 619 327 l 619 707 b 643 732 619 724 627 732 m 929 728 b 940 707 937 720 940 713 b 933 690 940 700 938 695 l 768 525 l 933 360 b 940 343 938 355 940 350 b 933 326 940 337 938 331 b 917 319 929 322 923 319 b 900 326 910 319 905 322 l 717 508 b 710 525 712 513 710 519 b 717 542 710 531 712 537 l 900 724 b 918 731 903 728 909 731 l 921 731 m 1119 525 b 1082 710 1119 591 1107 653 b 980 862 1057 768 1023 819 b 828 964 937 905 886 939 b 643 1001 771 989 709 1001 b 458 964 577 1001 516 989 b 306 862 400 939 349 905 b 204 710 263 819 229 768 b 167 525 179 653 167 591 b 204 340 167 459 179 397 b 306 188 229 282 263 231 b 458 86 349 145 400 111 b 643 49 516 61 577 49 b 828 86 709 49 771 61 b 980 188 886 111 937 145 b 1082 340 1023 231 1057 282 b 1119 525 1107 397 1119 459 m 1168 525 b 1127 321 1168 453 1154 385 b 1015 153 1100 257 1062 201 b 847 41 967 106 911 68 b 643 0 783 14 715 0 b 439 41 571 0 503 14 b 272 153 375 68 319 106 b 159 321 224 201 186 257 b 118 525 132 385 118 453 b 159 729 118 597 132 665 b 272 897 186 793 224 849 b 439 1009 319 944 375 982 b 643 1050 503 1036 571 1050 b 847 1009 715 1050 783 1036 b 1015 897 911 982 967 944 b 1127 729 1062 849 1100 793 b 1168 525 1154 665 1168 597 "},"Þ":{"ha":735,"x_min":0,"x_max":0,"o":"m 707 521 b 619 315 707 438 678 370 b 407 235 562 261 491 235 l 201 235 l 201 0 l 104 0 l 104 945 l 201 945 l 201 806 l 407 806 b 619 726 490 806 561 779 b 707 521 678 673 707 604 m 201 329 l 421 329 b 556 384 475 329 520 347 b 610 523 592 422 610 468 b 558 660 610 579 593 625 b 421 713 524 695 478 713 l 201 713 "},"þ":{"ha":792,"x_min":0,"x_max":0,"o":"m 104 -347 l 104 1042 l 201 1042 l 201 507 b 219 528 207 514 213 521 b 432 625 277 593 348 625 b 645 528 516 625 587 593 b 729 306 701 465 729 391 b 645 83 729 220 701 146 b 432 -14 587 19 516 -14 b 219 83 350 -14 278 19 b 201 104 213 90 207 97 l 201 -347 m 632 306 b 570 461 632 365 611 417 b 417 528 529 506 478 528 b 263 461 356 528 305 506 b 201 306 222 417 201 365 b 263 150 201 246 222 194 b 417 83 305 106 356 83 b 570 150 478 83 529 106 b 632 306 611 194 632 246 "}}}
